<?xml version="1.0" encoding="UTF-8" standalone="no"?><!-- Generator: Gravit.io --><svg xmlns="http://www.w3.org/2000/svg" xmlns:xlink="http://www.w3.org/1999/xlink" style="isolation:isolate" viewBox="0 0 600 400" width="600pt" height="400pt"><defs><clipPath id="_clipPath_ayZIJAZVbEQpMG8XyxD5a8B9gV8a8kyx"><rect width="600" height="400"/></clipPath></defs><g clip-path="url(#_clipPath_ayZIJAZVbEQpMG8XyxD5a8B9gV8a8kyx)"><polygon points="142.553,68.531,109.915,125.062,44.638,125.062,12,68.531,44.638,12,109.915,12" fill="rgb(255,153,0)"/><polygon points="296.766,0,264.128,56.531,198.852,56.531,166.214,0,198.852,-56.531,264.128,-56.531" fill="rgb(255,255,0)"/><polygon points="322.553,276.531,289.915,333.062,224.638,333.062,192,276.531,224.638,220,289.915,220" fill="rgb(255,0,0)"/><polygon points="235.553,400,202.915,456.531,137.638,456.531,105,400,137.638,343.469,202.915,343.469" fill="rgb(255,153,0)"/><polygon points="126.234,279.531,93.595,336.062,28.319,336.062,-4.319,279.531,28.319,223,93.595,223" fill="rgb(93,93,93)"/><polygon points="560,100,527.362,156.531,462.085,156.531,429.447,100,462.085,43.469,527.362,43.469" fill="rgb(255,0,255)"/><polygon points="486,269.593,453.362,326.124,388.085,326.124,355.447,269.593,388.085,213.062,453.362,213.062" fill="rgb(0,255,0)"/><polygon points="571,421.531,538.362,478.062,473.085,478.062,440.447,421.531,473.085,365,538.362,365" fill="rgb(255,153,0)"/><polygon points="411,125.062,378.362,181.593,313.085,181.593,280.447,125.062,313.085,68.531,378.362,68.531" fill="rgb(255,153,0)"/><polygon points="643,223,610.362,279.531,545.085,279.531,512.447,223,545.085,166.469,610.362,166.469" fill="rgb(255,153,0)"/><polygon points="248.553,156.531,215.915,213.062,150.638,213.062,118,156.531,150.638,100,215.915,100" fill="rgb(74,134,232)"/></g></svg>