<?xml version="1.0" encoding="UTF-8" standalone="no"?><!-- Generator: Gravit.io --><svg xmlns="http://www.w3.org/2000/svg" xmlns:xlink="http://www.w3.org/1999/xlink" style="isolation:isolate" viewBox="0 0 600 100" width="600pt" height="100pt"><defs><clipPath id="_clipPath_a2Z7wknA2UBuVcPZ9KYjnUlueeaewBHP"><rect width="600" height="100"/></clipPath></defs><g clip-path="url(#_clipPath_a2Z7wknA2UBuVcPZ9KYjnUlueeaewBHP)"><polygon points="43.254,25.855,34.94,40.255,18.313,40.255,10,25.855,18.313,11.456,34.94,11.456" fill="rgb(255,153,0)"/><polygon points="82.535,8.399,74.221,22.799,57.594,22.799,49.281,8.399,57.594,-6,74.221,-6" fill="rgb(255,255,0)"/><polygon points="89.103,78.836,80.789,93.236,64.163,93.236,55.849,78.836,64.163,64.437,80.789,64.437" fill="rgb(255,0,0)"/><polygon points="44.192,79.601,35.878,94,19.251,94,10.938,79.601,19.251,65.201,35.878,65.201" fill="rgb(93,93,93)"/><polygon points="149.585,33.871,141.271,48.27,124.644,48.27,116.331,33.871,124.644,19.472,141.271,19.472" fill="rgb(255,0,255)"/><polygon points="130.736,77.069,122.422,91.469,105.795,91.469,97.482,77.069,105.795,62.67,122.422,62.67" fill="rgb(0,255,0)"/><polygon points="111.632,40.255,103.319,54.654,86.692,54.654,78.378,40.255,86.692,25.855,103.319,25.855" fill="rgb(255,153,0)"/><polygon points="70.254,48.27,61.94,62.67,45.313,62.67,37,48.27,45.313,33.871,61.94,33.871" fill="rgb(74,134,232)"/></g></svg>